<svg width="430" height="430" viewBox="0 0 430 430" fill="none" xmlns="http://www.w3.org/2000/svg">
<path d="M25.6047 216.277C25.219 215.471 25.219 214.531 25.6047 213.725C59.3898 143.114 131.499 94.3428 215 94.3428C298.5 94.3428 370.609 143.114 404.394 213.724C404.78 214.53 404.78 215.47 404.394 216.276C370.609 286.886 298.5 335.658 214.999 335.658C131.499 335.658 59.3899 286.887 25.6047 216.277Z" fill="#EBE6EF"/>
<g style="mix-blend-mode:multiply" opacity="0.5">
<path d="M123.828 115.131C98.0561 143.222 76.455 175.169 59.9998 210C79.925 252.176 107.395 290.123 140.679 322.117C90.0659 302.944 48.8018 264.758 25.6047 216.276C25.2191 215.47 25.219 214.532 25.6046 213.726C46.1701 170.744 80.9362 135.854 123.828 115.131Z" fill="#EBE6EF"/>
</g>
<path d="M295 215C295 259.221 259.221 295.001 215 295.001C170.779 295.001 135 259.221 135 215C135 170.779 170.779 135 215 135C259.221 135 295 170.779 295 215Z" fill="#4BB3FD"/>
<g style="mix-blend-mode:multiply" opacity="0.5">
<path d="M260.423 280.885C252.438 283.555 243.889 285.001 235 285.001C190.779 285.001 155 249.222 155 205.001C155 177.656 168.68 153.54 189.577 139.115C157.84 149.726 135 179.668 135 215C135 259.221 170.779 295 215 295C231.877 295 247.525 289.789 260.423 280.885Z" fill="#4BB3FD"/>
</g>
<path d="M255 215C255 237.111 237.11 255 215 255C192.889 255 175 237.111 175 215C175 192.889 192.889 175 215 175C237.11 175 255 192.889 255 215Z" fill="#3A3347"/>
<g style="mix-blend-mode:multiply" opacity="0.5">
<path d="M234.403 249.996C212.569 249.677 195 231.911 195 210C195 194.933 203.307 181.826 215.596 175.004C215.398 175.001 215.199 175 215 175C192.889 175 175 192.889 175 215C175 237.111 192.889 255 215 255C222.043 255 228.658 253.185 234.403 249.996Z" fill="#3A3347"/>
</g>
<path d="M205 187.5C205 197.173 197.173 205 187.5 205C177.827 205 170 197.173 170 187.5C170 177.827 177.827 170 187.5 170C197.173 170 205 177.827 205 187.5Z" fill="#EBE6EF"/>
</svg>
