<svg width="430" height="430" viewBox="0 0 430 430" fill="none" xmlns="http://www.w3.org/2000/svg">
<path fill-rule="evenodd" clip-rule="evenodd" d="M120 125.5C120 73.033 162.533 30.5 215 30.5C267.467 30.5 310 73.033 310 125.5V195.5H290V125.5C290 84.0786 256.421 50.5 215 50.5C173.579 50.5 140 84.0786 140 125.5V195.5H120V125.5Z" fill="#3A3347"/>
<path d="M85 193.5C85 191.843 86.3431 190.5 88 190.5H342C343.657 190.5 345 191.843 345 193.5V340.5C345 362.591 327.091 380.5 305 380.5H125C102.909 380.5 85 362.591 85 340.5V193.5Z" fill="#FFC738"/>
<g style="mix-blend-mode:multiply" opacity="0.5">
<path d="M140 190.5H88C86.3431 190.5 85 191.843 85 193.5V340.5C85 362.591 102.909 380.5 125 380.5H180C157.909 380.5 140 362.591 140 340.5V190.5Z" fill="#FFC738"/>
</g>
<path d="M188.357 324.309L222.779 324.605C233.308 324.687 242.194 315.902 242.224 305.006C242.255 294.131 233.451 285.296 222.575 285.296H207.486C196.6 285.296 187.775 276.471 187.775 265.585C187.775 254.7 196.6 245.885 207.486 245.885H238.031M215.005 340V324.533M215.005 245.895V230" stroke="#B26836" stroke-width="10" stroke-linecap="round" stroke-linejoin="round"/>
</svg>
